<svg id="visual" viewBox="0 0 960 540" width="960" height="540" xmlns="http://www.w3.org/2000/svg" xmlns:xlink="http://www.w3.org/1999/xlink" version="1.1"><rect x="0" y="0" width="960" height="540" fill="#FFFFFF"></rect><path d="M625 540L632 527.2C639 514.3 653 488.7 663.7 463C674.3 437.3 681.7 411.7 672.8 386C664 360.3 639 334.7 643.8 308.8C648.7 283 683.3 257 687.3 231.2C691.3 205.3 664.7 179.7 650.2 154C635.7 128.3 633.3 102.7 632.7 77C632 51.3 633 25.7 633.5 12.8L634 0L960 0L960 12.8C960 25.7 960 51.3 960 77C960 102.7 960 128.3 960 154C960 179.7 960 205.3 960 231.2C960 257 960 283 960 308.8C960 334.7 960 360.3 960 386C960 411.7 960 437.3 960 463C960 488.7 960 514.3 960 527.2L960 540Z" fill="#096f58"></path><path d="M725 540L722.3 527.2C719.7 514.3 714.3 488.7 713.3 463C712.3 437.3 715.7 411.7 708.5 386C701.3 360.3 683.7 334.7 690.2 308.8C696.7 283 727.3 257 730 231.2C732.7 205.3 707.3 179.7 689.5 154C671.7 128.3 661.3 102.7 667.8 77C674.3 51.3 697.7 25.7 709.3 12.8L721 0L960 0L960 12.8C960 25.7 960 51.3 960 77C960 102.7 960 128.3 960 154C960 179.7 960 205.3 960 231.2C960 257 960 283 960 308.8C960 334.7 960 360.3 960 386C960 411.7 960 437.3 960 463C960 488.7 960 514.3 960 527.2L960 540Z" fill="#338d54"></path><path d="M702 540L714.3 527.2C726.7 514.3 751.3 488.7 752 463C752.7 437.3 729.3 411.7 721.8 386C714.3 360.3 722.7 334.7 737.2 308.8C751.7 283 772.3 257 777.3 231.2C782.3 205.3 771.7 179.7 767.3 154C763 128.3 765 102.7 773.7 77C782.3 51.3 797.7 25.7 805.3 12.8L813 0L960 0L960 12.8C960 25.7 960 51.3 960 77C960 102.7 960 128.3 960 154C960 179.7 960 205.3 960 231.2C960 257 960 283 960 308.8C960 334.7 960 360.3 960 386C960 411.7 960 437.3 960 463C960 488.7 960 514.3 960 527.2L960 540Z" fill="#6ba943"></path><path d="M783 540L795.8 527.2C808.7 514.3 834.3 488.7 840.2 463C846 437.3 832 411.7 818.7 386C805.3 360.3 792.7 334.7 789.5 308.8C786.3 283 792.7 257 800 231.2C807.3 205.3 815.7 179.7 815.2 154C814.7 128.3 805.3 102.7 802.7 77C800 51.3 804 25.7 806 12.8L808 0L960 0L960 12.8C960 25.7 960 51.3 960 77C960 102.7 960 128.3 960 154C960 179.7 960 205.3 960 231.2C960 257 960 283 960 308.8C960 334.7 960 360.3 960 386C960 411.7 960 437.3 960 463C960 488.7 960 514.3 960 527.2L960 540Z" fill="#afc127"></path><path d="M887 540L882.5 527.2C878 514.3 869 488.7 870.5 463C872 437.3 884 411.7 893.8 386C903.7 360.3 911.3 334.7 910 308.8C908.7 283 898.3 257 889.2 231.2C880 205.3 872 179.7 871.3 154C870.7 128.3 877.3 102.7 878.3 77C879.3 51.3 874.7 25.7 872.3 12.8L870 0L960 0L960 12.8C960 25.7 960 51.3 960 77C960 102.7 960 128.3 960 154C960 179.7 960 205.3 960 231.2C960 257 960 283 960 308.8C960 334.7 960 360.3 960 386C960 411.7 960 437.3 960 463C960 488.7 960 514.3 960 527.2L960 540Z" fill="#ffd100"></path></svg>