<svg id="visual" viewBox="0 0 1200 600" width="1200" height="600" xmlns="http://www.w3.org/2000/svg" xmlns:xlink="http://www.w3.org/1999/xlink" version="1.1"><rect x="0" y="0" width="1200" height="600" fill="#FFFFFF"></rect><path d="M0 477L28.5 478.8C57 480.7 114 484.3 171.2 484C228.3 483.7 285.7 479.3 342.8 473.2C400 467 457 459 514.2 464.7C571.3 470.3 628.7 489.7 685.8 492.7C743 495.7 800 482.3 857.2 483C914.3 483.7 971.7 498.3 1028.8 500.5C1086 502.7 1143 492.3 1171.5 487.2L1200 482L1200 601L1171.5 601C1143 601 1086 601 1028.8 601C971.7 601 914.3 601 857.2 601C800 601 743 601 685.8 601C628.7 601 571.3 601 514.2 601C457 601 400 601 342.8 601C285.7 601 228.3 601 171.2 601C114 601 57 601 28.5 601L0 601Z" fill="#ffd100"></path><path d="M0 511L28.5 507.3C57 503.7 114 496.3 171.2 493.5C228.3 490.7 285.7 492.3 342.8 494.3C400 496.3 457 498.7 514.2 505.2C571.3 511.7 628.7 522.3 685.8 527.7C743 533 800 533 857.2 529.2C914.3 525.3 971.7 517.7 1028.8 509.8C1086 502 1143 494 1171.5 490L1200 486L1200 601L1171.5 601C1143 601 1086 601 1028.8 601C971.7 601 914.3 601 857.2 601C800 601 743 601 685.8 601C628.7 601 571.3 601 514.2 601C457 601 400 601 342.8 601C285.7 601 228.3 601 171.2 601C114 601 57 601 28.5 601L0 601Z" fill="#97ba31"></path><path d="M0 517L28.5 521.7C57 526.3 114 535.7 171.2 536.5C228.3 537.3 285.7 529.7 342.8 531.3C400 533 457 544 514.2 545.3C571.3 546.7 628.7 538.3 685.8 538.2C743 538 800 546 857.2 545C914.3 544 971.7 534 1028.8 533.8C1086 533.7 1143 543.3 1171.5 548.2L1200 553L1200 601L1171.5 601C1143 601 1086 601 1028.8 601C971.7 601 914.3 601 857.2 601C800 601 743 601 685.8 601C628.7 601 571.3 601 514.2 601C457 601 400 601 342.8 601C285.7 601 228.3 601 171.2 601C114 601 57 601 28.5 601L0 601Z" fill="#459750"></path><path d="M0 576L28.5 576.2C57 576.3 114 576.7 171.2 575.8C228.3 575 285.7 573 342.8 572.3C400 571.7 457 572.3 514.2 571.7C571.3 571 628.7 569 685.8 567.3C743 565.7 800 564.3 857.2 564.8C914.3 565.3 971.7 567.7 1028.8 566.5C1086 565.3 1143 560.7 1171.5 558.3L1200 556L1200 601L1171.5 601C1143 601 1086 601 1028.8 601C971.7 601 914.3 601 857.2 601C800 601 743 601 685.8 601C628.7 601 571.3 601 514.2 601C457 601 400 601 342.8 601C285.7 601 228.3 601 171.2 601C114 601 57 601 28.5 601L0 601Z" fill="#096f58"></path></svg>