<svg id="visual" viewBox="0 0 320 1080" width="320" height="1080" xmlns="http://www.w3.org/2000/svg" xmlns:xlink="http://www.w3.org/1999/xlink" version="1.1"><rect x="0" y="0" width="320" height="1080" fill="#096f58"></rect><path d="M0 738L36 772L71 753L107 821L142 728L178 657L213 746L249 791L284 780L320 780L320 1081L284 1081L249 1081L213 1081L178 1081L142 1081L107 1081L71 1081L36 1081L0 1081Z" fill="#ffd100"></path><path d="M0 770L36 794L71 786L107 816L142 794L178 850L213 805L249 737L284 744L320 833L320 1081L284 1081L249 1081L213 1081L178 1081L142 1081L107 1081L71 1081L36 1081L0 1081Z" fill="#97ba31"></path><path d="M0 828L36 887L71 942L107 858L142 858L178 872L213 856L249 943L284 894L320 844L320 1081L284 1081L249 1081L213 1081L178 1081L142 1081L107 1081L71 1081L36 1081L0 1081Z" fill="#459750"></path><path d="M0 985L36 1011L71 958L107 1012L142 971L178 941L213 921L249 955L284 949L320 927L320 1081L284 1081L249 1081L213 1081L178 1081L142 1081L107 1081L71 1081L36 1081L0 1081Z" fill="#096f58"></path></svg>