<svg id="visual" viewBox="0 0 1200 50" width="1200" height="50" xmlns="http://www.w3.org/2000/svg" xmlns:xlink="http://www.w3.org/1999/xlink" version="1.1"><rect x="0" y="0" width="1200" height="50" fill="#FFFFFF"></rect><defs><linearGradient id="grad1_0" x1="95.8%" y1="100%" x2="100%" y2="0%"><stop offset="-430%" stop-color="#ffffff" stop-opacity="1"></stop><stop offset="530%" stop-color="#ffffff" stop-opacity="1"></stop></linearGradient></defs><defs><linearGradient id="grad2_0" x1="0%" y1="100%" x2="4.2%" y2="0%"><stop offset="-430%" stop-color="#ffffff" stop-opacity="1"></stop><stop offset="530%" stop-color="#ffffff" stop-opacity="1"></stop></linearGradient></defs><g transform="translate(1200, 50)"><path d="M-50 0C-47.1 -5.8 -44.2 -11.7 -41.6 -17.2C-39 -22.8 -36.8 -28.1 -33.2 -33.2C-29.7 -38.4 -24.9 -43.4 -19.1 -46.2C-13.4 -49 -6.7 -49.5 0 -50L0 0Z" fill="#096f58"></path></g><g transform="translate(0, 0)"><path d="M50 0C46 5.9 42 11.8 37.9 15.7C33.7 19.5 29.5 21.3 26.9 26.9C24.3 32.4 23.3 41.7 19.1 46.2C14.9 50.7 7.5 50.3 0 50L0 0Z" fill="#096f58"></path></g></svg>